<?xml version="1.0" encoding="UTF-8"?><!DOCTYPE svg PUBLIC "-//W3C//DTD SVG 1.1//EN" "http://www.w3.org/Graphics/SVG/1.1/DTD/svg11.dtd"><svg xmlns="http://www.w3.org/2000/svg" xmlns:xlink="http://www.w3.org/1999/xlink"><symbol id="add" viewBox="0 0 24 24"><path d="M0 0h24v24H0z" fill="none"/><path d="M19 13h-6v6h-2v-6H5v-2h6V5h2v6h6v2z"/></symbol><symbol id="assignment" viewBox="0 0 24 24"><path d="M0 0h24v24H0z" fill="none"/><path d="M19 3h-4.18C14.4 1.84 13.3 1 12 1c-1.3 0-2.4.84-2.82 2H5c-1.1 0-2 .9-2 2v14c0 1.1.9 2 2 2h14c1.1 0 2-.9 2-2V5c0-1.1-.9-2-2-2zm-7 0c.55 0 1 .45 1 1s-.45 1-1 1-1-.45-1-1 .45-1 1-1zm2 14H7v-2h7v2zm3-4H7v-2h10v2zm0-4H7V7h10v2z"/></symbol><symbol id="build" viewBox="0 0 24 24"><path d="M0 0h24v24H0V0z" fill="none"/><path d="M22.61 18.99l-9.08-9.08c.93-2.34.45-5.1-1.44-7C9.79.61 6.21.4 3.66 2.26L7.5 6.11 6.08 7.52 2.25 3.69C.39 6.23.6 9.82 2.9 12.11c1.86 1.86 4.57 2.35 6.89 1.48l9.11 9.11c.39.39 1.02.39 1.41 0l2.3-2.3c.4-.38.4-1.01 0-1.41zm-3 1.6l-9.46-9.46c-.61.45-1.29.72-2 .82-1.36.2-2.79-.21-3.83-1.25C3.37 9.76 2.93 8.5 3 7.26l3.09 3.09 4.24-4.24-3.09-3.09c1.24-.07 2.49.37 3.44 1.31a4.469 4.469 0 011.24 3.96 4.35 4.35 0 01-.88 1.96l9.45 9.45-.88.89z"/></symbol><symbol id="cancel" viewBox="0 0 24 24"><path d="M0 0h24v24H0V0z" fill="none" opacity=".87"/><path d="M12 2C6.47 2 2 6.47 2 12s4.47 10 10 10 10-4.47 10-10S17.53 2 12 2zm0 18c-4.41 0-8-3.59-8-8s3.59-8 8-8 8 3.59 8 8-3.59 8-8 8zm3.59-13L12 10.59 8.41 7 7 8.41 10.59 12 7 15.59 8.41 17 12 13.41 15.59 17 17 15.59 13.41 12 17 8.41z"/></symbol><symbol id="clear" viewBox="0 0 24 24"><path d="M0 0h24v24H0z" fill="none"/><path d="M19 6.41L17.59 5 12 10.59 6.41 5 5 6.41 10.59 12 5 17.59 6.41 19 12 13.41 17.59 19 19 17.59 13.41 12z"/></symbol><symbol id="code" viewBox="0 0 24 24"><path d="M0 0h24v24H0V0z" fill="none"/><path d="M9.4 16.6L4.8 12l4.6-4.6L8 6l-6 6 6 6 1.4-1.4zm5.2 0l4.6-4.6-4.6-4.6L16 6l6 6-6 6-1.4-1.4z"/></symbol><symbol id="delete" viewBox="0 0 24 24"><path d="M0 0h24v24H0z" fill="none"/><path d="M6 19c0 1.1.9 2 2 2h8c1.1 0 2-.9 2-2V7H6v12zM19 4h-3.5l-1-1h-5l-1 1H5v2h14V4z"/></symbol><symbol id="description" viewBox="0 0 24 24"><path d="M0 0h24v24H0V0z" fill="none"/><path d="M8 16h8v2H8zm0-4h8v2H8zm6-10H6c-1.1 0-2 .9-2 2v16c0 1.1.89 2 1.99 2H18c1.1 0 2-.9 2-2V8l-6-6zm4 18H6V4h7v5h5v11z"/></symbol><symbol id="edit" viewBox="0 0 24 24"><path d="M0 0h24v24H0z" fill="none"/><path d="M3 17.25V21h3.75L17.81 9.94l-3.75-3.75L3 17.25zM20.71 7.04a.996.996 0 000-1.41l-2.34-2.34a.996.996 0 00-1.41 0l-1.83 1.83 3.75 3.75 1.83-1.83z"/></symbol><symbol id="error" viewBox="0 0 24 24"><path d="M0 0h24v24H0z" fill="none"/><path d="M12 2C6.48 2 2 6.48 2 12s4.48 10 10 10 10-4.48 10-10S17.52 2 12 2zm1 15h-2v-2h2v2zm0-4h-2V7h2v6z"/></symbol><symbol id="grade" viewBox="0 0 24 24"><path d="M0 0h24v24H0z" fill="none"/><path d="M12 17.27L18.18 21l-1.64-7.03L22 9.24l-7.19-.61L12 2 9.19 8.63 2 9.24l5.46 4.73L5.82 21z"/></symbol><symbol id="group" viewBox="0 0 24 24"><path d="M0 0h24v24H0V0z" fill="none"/><path d="M9 13.75c-2.34 0-7 1.17-7 3.5V19h14v-1.75c0-2.33-4.66-3.5-7-3.5zM4.34 17c.84-.58 2.87-1.25 4.66-1.25s3.82.67 4.66 1.25H4.34zM9 12c1.93 0 3.5-1.57 3.5-3.5S10.93 5 9 5 5.5 6.57 5.5 8.5 7.07 12 9 12zm0-5c.83 0 1.5.67 1.5 1.5S9.83 10 9 10s-1.5-.67-1.5-1.5S8.17 7 9 7zm7.04 6.81c1.16.84 1.96 1.96 1.96 3.44V19h4v-1.75c0-2.02-3.5-3.17-5.96-3.44zM15 12c1.93 0 3.5-1.57 3.5-3.5S16.93 5 15 5c-.54 0-1.04.13-1.5.35.63.89 1 1.98 1 3.15s-.37 2.26-1 3.15c.46.22.96.35 1.5.35z"/></symbol><symbol id="groups" viewBox="0 0 24 24"><path fill="none" d="M0 0h24v24H0z"/><path d="M12 12.75c1.63 0 3.07.39 4.24.9 1.08.48 1.76 1.56 1.76 2.73V18H6v-1.61c0-1.18.68-2.26 1.76-2.73 1.17-.52 2.61-.91 4.24-.91zM4 13c1.1 0 2-.9 2-2s-.9-2-2-2-2 .9-2 2 .9 2 2 2zm1.13 1.1c-.37-.06-.74-.1-1.13-.1-.99 0-1.93.21-2.78.58A2.01 2.01 0 000 16.43V18h4.5v-1.61c0-.83.23-1.61.63-2.29zM20 13c1.1 0 2-.9 2-2s-.9-2-2-2-2 .9-2 2 .9 2 2 2zm4 3.43c0-.81-.48-1.53-1.22-1.85A6.95 6.95 0 0020 14c-.39 0-.76.04-1.13.1.4.68.63 1.46.63 2.29V18H24v-1.57zM12 6c1.66 0 3 1.34 3 3s-1.34 3-3 3-3-1.34-3-3 1.34-3 3-3z"/></symbol><symbol id="help" viewBox="0 0 24 24"><path d="M0 0h24v24H0V0z" fill="none"/><path d="M12 2C6.48 2 2 6.48 2 12s4.48 10 10 10 10-4.48 10-10S17.52 2 12 2zm1 17h-2v-2h2v2zm2.07-7.75l-.9.92C13.45 12.9 13 13.5 13 15h-2v-.5c0-1.1.45-2.1 1.17-2.83l1.24-1.26c.37-.36.59-.86.59-1.41 0-1.1-.9-2-2-2s-2 .9-2 2H8c0-2.21 1.79-4 4-4s4 1.79 4 4c0 .88-.36 1.68-.93 2.25z"/></symbol><symbol id="home" viewBox="0 0 24 24"><path d="M0 0h24v24H0z" fill="none"/><path d="M10 20v-6h4v6h5v-8h3L12 3 2 12h3v8z"/></symbol><symbol id="info" viewBox="0 0 24 24"><path d="M0 0h24v24H0z" fill="none"/><path d="M12 2C6.48 2 2 6.48 2 12s4.48 10 10 10 10-4.48 10-10S17.52 2 12 2zm1 15h-2v-6h2v6zm0-8h-2V7h2v2z"/></symbol><symbol id="launch" viewBox="0 0 24 24"><path d="M0 0h24v24H0z" fill="none"/><path d="M19 19H5V5h7V3H5a2 2 0 00-2 2v14a2 2 0 002 2h14c1.1 0 2-.9 2-2v-7h-2v7zM14 3v2h3.59l-9.83 9.83 1.41 1.41L19 6.41V10h2V3h-7z"/></symbol><symbol id="lens" viewBox="0 0 24 24"><path d="M0 0h24v24H0z" fill="none"/><path d="M12 2C6.48 2 2 6.48 2 12s4.48 10 10 10 10-4.48 10-10S17.52 2 12 2z"/></symbol><symbol id="lock" viewBox="0 0 24 24"><path d="M0 0h24v24H0z" fill="none"/><path d="M18 8h-1V6c0-2.76-2.24-5-5-5S7 3.24 7 6v2H6c-1.1 0-2 .9-2 2v10c0 1.1.9 2 2 2h12c1.1 0 2-.9 2-2V10c0-1.1-.9-2-2-2zm-6 9c-1.1 0-2-.9-2-2s.9-2 2-2 2 .9 2 2-.9 2-2 2zm3.1-9H8.9V6c0-1.71 1.39-3.1 3.1-3.1 1.71 0 3.1 1.39 3.1 3.1v2z"/></symbol><symbol id="meeting_room" viewBox="0 0 24 24"><path d="M14 6v15H3v-2h2V3h9v1h5v15h2v2h-4V6h-3zm-4 5v2h2v-2h-2z"/></symbol><symbol id="menu" viewBox="0 0 24 24"><path d="M0 0h24v24H0z" fill="none"/><path d="M3 18h18v-2H3v2zm0-5h18v-2H3v2zm0-7v2h18V6H3z"/></symbol><symbol id="more_vert" viewBox="0 0 24 24"><path d="M0 0h24v24H0z" fill="none"/><path d="M12 8c1.1 0 2-.9 2-2s-.9-2-2-2-2 .9-2 2 .9 2 2 2zm0 2c-1.1 0-2 .9-2 2s.9 2 2 2 2-.9 2-2-.9-2-2-2zm0 6c-1.1 0-2 .9-2 2s.9 2 2 2 2-.9 2-2-.9-2-2-2z"/></symbol><symbol id="person" viewBox="0 0 24 24"><path d="M0 0h24v24H0z" fill="none"/><path d="M12 12c2.21 0 4-1.79 4-4s-1.79-4-4-4-4 1.79-4 4 1.79 4 4 4zm0 2c-2.67 0-8 1.34-8 4v2h16v-2c0-2.66-5.33-4-8-4z"/></symbol><symbol id="person_add" viewBox="0 0 24 24"><path d="M0 0h24v24H0z" fill="none"/><path d="M15 12c2.21 0 4-1.79 4-4s-1.79-4-4-4-4 1.79-4 4 1.79 4 4 4zm-9-2V7H4v3H1v2h3v3h2v-3h3v-2H6zm9 4c-2.67 0-8 1.34-8 4v2h16v-2c0-2.66-5.33-4-8-4z"/></symbol><symbol id="play_arrow" viewBox="0 0 24 24"><path d="M0 0h24v24H0V0z" fill="none"/><path d="M10 8.64L15.27 12 10 15.36V8.64M8 5v14l11-7L8 5z"/></symbol><symbol id="record_voice_over" viewBox="0 0 24 24"><path d="M0 0h24v24H0z" fill="none"/><circle cx="9" cy="9" r="4"/><path d="M9 15c-2.67 0-8 1.34-8 4v2h16v-2c0-2.66-5.33-4-8-4zm7.76-9.64l-1.68 1.69c.84 1.18.84 2.71 0 3.89l1.68 1.69c2.02-2.02 2.02-5.07 0-7.27zM20.07 2l-1.63 1.63c2.77 3.02 2.77 7.56 0 10.74L20.07 16c3.9-3.89 3.91-9.95 0-14z"/></symbol><symbol id="school" viewBox="0 0 24 24"><path d="M0 0h24v24H0z" fill="none"/><path d="M5 13.18v4L12 21l7-3.82v-4L12 17l-7-3.82zM12 3L1 9l11 6 9-4.91V17h2V9L12 3z"/></symbol><symbol id="search" viewBox="0 0 24 24"><path d="M0 0h24v24H0z" fill="none"/><path d="M19 13h-6v6h-2v-6H5v-2h6V5h2v6h6v2z"/></symbol><symbol id="security" viewBox="0 0 24 24"><path d="M0 0h24v24H0z" fill="none"/><path d="M12 1L3 5v6c0 5.55 3.84 10.74 9 12 5.16-1.26 9-6.45 9-12V5l-9-4zm0 10.99h7c-.53 4.12-3.28 7.79-7 8.94V12H5V6.3l7-3.11v8.8z"/></symbol><symbol id="settings" viewBox="0 0 24 24"><path d="M0 0h24v24H0V0z" fill="none"/><path d="M19.14 12.94c.04-.3.06-.61.06-.94 0-.32-.02-.64-.07-.94l2.03-1.58a.49.49 0 00.12-.61l-1.92-3.32a.488.488 0 00-.59-.22l-2.39.96c-.5-.38-1.03-.7-1.62-.94l-.36-2.54a.484.484 0 00-.48-.41h-3.84c-.24 0-.43.17-.47.41l-.36 2.54c-.59.24-1.13.57-1.62.94l-2.39-.96c-.22-.08-.47 0-.59.22L2.74 8.87c-.12.21-.08.47.12.61l2.03 1.58c-.05.3-.09.63-.09.94s.02.64.07.94l-2.03 1.58a.49.49 0 00-.12.61l1.92 3.32c.12.22.37.29.59.22l2.39-.96c.5.38 1.03.7 1.62.94l.36 2.54c.05.24.24.41.48.41h3.84c.24 0 .44-.17.47-.41l.36-2.54c.59-.24 1.13-.56 1.62-.94l2.39.96c.22.08.47 0 .59-.22l1.92-3.32c.12-.22.07-.47-.12-.61l-2.01-1.58zM12 15.6c-1.98 0-3.6-1.62-3.6-3.6s1.62-3.6 3.6-3.6 3.6 1.62 3.6 3.6-1.62 3.6-3.6 3.6z"/></symbol><symbol id="supervisor_account" viewBox="0 0 24 24"><path d="M0 0h24v24H0z" fill="none"/><path d="M16.5 12c1.38 0 2.49-1.12 2.49-2.5S17.88 7 16.5 7a2.5 2.5 0 000 5zM9 11c1.66 0 2.99-1.34 2.99-3S10.66 5 9 5C7.34 5 6 6.34 6 8s1.34 3 3 3zm7.5 3c-1.83 0-5.5.92-5.5 2.75V19h11v-2.25c0-1.83-3.67-2.75-5.5-2.75zM9 13c-2.33 0-7 1.17-7 3.5V19h7v-2.25c0-.85.33-2.34 2.37-3.47C10.5 13.1 9.66 13 9 13z"/></symbol><symbol id="vpn_key" viewBox="0 0 24 24"><path d="M0 0h24v24H0z" fill="none"/><path d="M12.65 10A5.99 5.99 0 007 6c-3.31 0-6 2.69-6 6s2.69 6 6 6a5.99 5.99 0 005.65-4H17v4h4v-4h2v-4H12.65zM7 14c-1.1 0-2-.9-2-2s.9-2 2-2 2 .9 2 2-.9 2-2 2z"/></symbol></svg>